ffmpeg started on 2025-05-24 at 15:40:39
Report written to "D:\Convert\FFMetrics\reports\ssim_report-6.txt"
Log level: 32
Command line:
ffmpeg -hide_banner -nostdin -i "G:\\\xc0\xed\xe8\xec\xe5\\\xce\xed\xe3\xee\xe8\xed\xe3\xe8\\!_33_\xc7\xe8\xec\xe0_2024\\DreamCast\\\xd1\xf2\xe0\xed\xee\xe2\xff\xf1\xfc \xe2\xee\xeb\xf8\xe5\xe1\xed\xe8\xf6\xe5\xe9\\[DC] Mahou Shoujo ni Akogarete - 07_Telegram_HEVC.mkv" -i "G:\\\xc0\xed\xe8\xec\xe5\\\xce\xed\xe3\xee\xe8\xed\xe3\xe8\\!_33_\xc7\xe8\xec\xe0_2024\\DreamCast\\\xd1\xf2\xe0\xed\xee\xe2\xff\xf1\xfc \xe2\xee\xeb\xf8\xe5\xe1\xed\xe8\xf6\xe5\xe9\\[DC] Mahou Shoujo ni Akogarete - 07_Telegram.mp4" -lavfi "[0:v]settb=AVTB,setpts=PTS-STARTPTS,format=pix_fmts=yuv420p10,fps=24000/1001,scale=1920:1080:flags=bicubic[main];[1:v]settb=AVTB,setpts=PTS-STARTPTS,format=pix_fmts=yuv420p,fps=24000/1001,scale=1920:1080:flags=bicubic[ref];[main][ref]ssim=eof_action=endall:stats_file='D\\:/Convert/FFMetrics/logs/ssim_logfile-6.txt'" -f null -
Input #0, matroska,webm, from 'G:\Аниме\Онгоинги\!_33_Зима_2024\DreamCast\Становясь волшебницей\[DC] Mahou Shoujo ni Akogarete - 07_Telegram_HEVC.mkv':
  Metadata:
    COMPATIBLE_BRANDS: isomiso2avc1mp41
    MAJOR_BRAND     : isom
    MINOR_VERSION   : 512
    ENCODER         : Lavf61.7.100
  Duration: 00:23:55.73, start: -0.021000, bitrate: 1058 kb/s
  Stream #0:0: Video: hevc (Main 10), yuv420p10le(tv, bt709, progressive), 1920x1080 [SAR 1:1 DAR 16:9], 23.98 fps, 23.98 tbr, 1k tbn (default)
      Metadata:
        HANDLER_NAME    : VideoHandler
        VENDOR_ID       : [0][0][0][0]
        ENCODER         : Lavc61.19.100 libx265
        BPS             : 864934
        DURATION        : 00:23:48.760708333
        NUMBER_OF_FRAMES: 34256
        NUMBER_OF_BYTES : 154472926
        _STATISTICS_WRITING_APP: mkvpropedit v66.0.0 ('Josie') 64-bit
        _STATISTICS_WRITING_DATE_UTC: 2025-05-24 10:06:37
        _STATISTICS_TAGS: BPS DURATION NUMBER_OF_FRAMES NUMBER_OF_BYTES
  Stream #0:1: Audio: aac (LC), 48000 Hz, stereo, fltp (default)
      Metadata:
        HANDLER_NAME    : SoundHandler
        VENDOR_ID       : [0][0][0][0]
        ENCODER         : Lavc61.19.100 aac
        BPS             : 193374
        DURATION        : 00:23:55.733000000
        NUMBER_OF_FRAMES: 67301
        NUMBER_OF_BYTES : 34704240
        _STATISTICS_WRITING_APP: mkvpropedit v66.0.0 ('Josie') 64-bit
        _STATISTICS_WRITING_DATE_UTC: 2025-05-24 10:06:37
        _STATISTICS_TAGS: BPS DURATION NUMBER_OF_FRAMES NUMBER_OF_BYTES
Input #1, mov,mp4,m4a,3gp,3g2,mj2, from 'G:\Аниме\Онгоинги\!_33_Зима_2024\DreamCast\Становясь волшебницей\[DC] Mahou Shoujo ni Akogarete - 07_Telegram.mp4':
  Metadata:
    major_brand     : isom
    minor_version   : 512
    compatible_brands: isomiso2avc1mp41
    encoder         : Lavf60.16.100
  Duration: 00:23:55.70, start: 0.000000, bitrate: 3584 kb/s
  Stream #1:0[0x1](und): Video: h264 (High) (avc1 / 0x31637661), yuv420p(tv, bt709, progressive), 1920x1080 [SAR 1:1 DAR 16:9], 3453 kb/s, 23.98 fps, 23.98 tbr, 24k tbn (default)
      Metadata:
        handler_name    : VideoHandler
        vendor_id       : [0][0][0][0]
        encoder         : Lavc60.31.102 h264_qsv
  Stream #1:1[0x2](und): Audio: aac (HE-AACv2) (mp4a / 0x6134706D), 48000 Hz, stereo, fltp, 144 kb/s (default)
      Metadata:
        handler_name    : SoundHandler
        vendor_id       : [0][0][0][0]
Stream mapping:
  Stream #0:0 (hevc) -> settb:default
  Stream #1:0 (h264) -> settb:default
  ssim:default -> Stream #0:0 (wrapped_avframe)
  Stream #0:1 -> #0:1 (aac (native) -> pcm_s16le (native))
Output #0, null, to 'pipe:':
  Metadata:
    COMPATIBLE_BRANDS: isomiso2avc1mp41
    MAJOR_BRAND     : isom
    MINOR_VERSION   : 512
    encoder         : Lavf61.7.100
  Stream #0:0: Video: wrapped_avframe, yuv420p10le(tv, bt709, progressive), 1920x1080 [SAR 1:1 DAR 16:9], q=2-31, 200 kb/s, 23.98 fps, 23.98 tbn
      Metadata:
        encoder         : Lavc61.19.100 wrapped_avframe
  Stream #0:1: Audio: pcm_s16le, 48000 Hz, stereo, s16, 1536 kb/s (default)
      Metadata:
        HANDLER_NAME    : SoundHandler
        VENDOR_ID       : [0][0][0][0]
        _STATISTICS_TAGS: BPS DURATION NUMBER_OF_FRAMES NUMBER_OF_BYTES
        BPS             : 193374
        DURATION        : 00:23:55.733000000
        NUMBER_OF_FRAMES: 67301
        NUMBER_OF_BYTES : 34704240
        _STATISTICS_WRITING_APP: mkvpropedit v66.0.0 ('Josie') 64-bit
        _STATISTICS_WRITING_DATE_UTC: 2025-05-24 10:06:37
        encoder         : Lavc61.19.100 pcm_s16le
frame=  194 fps=0.0 q=-0.0 size=N/A time=00:00:08.09 bitrate=N/A speed=15.9x    frame=  426 fps=412 q=-0.0 size=N/A time=00:00:17.76 bitrate=N/A speed=17.2x    frame=  671 fps=434 q=-0.0 size=N/A time=00:00:27.98 bitrate=N/A speed=18.1x    frame=  943 fps=459 q=-0.0 size=N/A time=00:00:39.33 bitrate=N/A speed=19.1x    frame= 1196 fps=463 q=-0.0 size=N/A time=00:00:49.88 bitrate=N/A speed=19.3x    frame= 1466 fps=474 q=-0.0 size=N/A time=00:01:01.14 bitrate=N/A speed=19.8x    frame= 1722 fps=478 q=-0.0 size=N/A time=00:01:11.82 bitrate=N/A speed=19.9x    frame= 1999 fps=484 q=-0.0 size=N/A time=00:01:23.37 bitrate=N/A speed=20.2x    frame= 2216 fps=478 q=-0.0 size=N/A time=00:01:32.42 bitrate=N/A speed=19.9x    frame= 2419 fps=470 q=-0.0 size=N/A time=00:01:40.89 bitrate=N/A speed=19.6x    frame= 2678 fps=472 q=-0.0 size=N/A time=00:01:51.69 bitrate=N/A speed=19.7x    frame= 2863 fps=463 q=-0.0 size=N/A time=00:01:59.41 bitrate=N/A speed=19.3x    frame= 3085 fps=461 q=-0.0 size=N/A time=00:02:08.67 bitrate=N/A speed=19.2x    frame= 3300 fps=457 q=-0.0 size=N/A time=00:02:17.63 bitrate=N/A speed=19.1x    frame= 3466 fps=448 q=-0.0 size=N/A time=00:02:24.56 bitrate=N/A speed=18.7x    frame= 3668 fps=445 q=-0.0 size=N/A time=00:02:32.98 bitrate=N/A speed=18.6x    frame= 3847 fps=439 q=-0.0 size=N/A time=00:02:40.45 bitrate=N/A speed=18.3x    frame= 3995 fps=430 q=-0.0 size=N/A time=00:02:46.62 bitrate=N/A speed=  18x    frame= 4218 fps=431 q=-0.0 size=N/A time=00:02:55.92 bitrate=N/A speed=  18x    frame= 4425 fps=429 q=-0.0 size=N/A time=00:03:04.55 bitrate=N/A speed=17.9x    frame= 4627 fps=427 q=-0.0 size=N/A time=00:03:12.98 bitrate=N/A speed=17.8x    frame= 4867 fps=429 q=-0.0 size=N/A time=00:03:22.99 bitrate=N/A speed=17.9x    frame= 5108 fps=431 q=-0.0 size=N/A time=00:03:33.04 bitrate=N/A speed=  18x    frame= 5320 fps=430 q=-0.0 size=N/A time=00:03:41.88 bitrate=N/A speed=17.9x    frame= 5576 fps=433 q=-0.0 size=N/A time=00:03:52.56 bitrate=N/A speed=18.1x    frame= 5839 fps=435 q=-0.0 size=N/A time=00:04:03.53 bitrate=N/A speed=18.2x    frame= 6052 fps=435 q=-0.0 size=N/A time=00:04:12.41 bitrate=N/A speed=18.1x    frame= 6273 fps=435 q=-0.0 size=N/A time=00:04:21.63 bitrate=N/A speed=18.1x    frame= 6541 fps=437 q=-0.0 size=N/A time=00:04:32.81 bitrate=N/A speed=18.2x    frame= 6817 fps=441 q=-0.0 size=N/A time=00:04:44.32 bitrate=N/A speed=18.4x    frame= 7076 fps=443 q=-0.0 size=N/A time=00:04:55.12 bitrate=N/A speed=18.5x    frame= 7362 fps=446 q=-0.0 size=N/A time=00:05:07.05 bitrate=N/A speed=18.6x    frame= 7648 fps=449 q=-0.0 size=N/A time=00:05:18.98 bitrate=N/A speed=18.7x    frame= 7918 fps=452 q=-0.0 size=N/A time=00:05:30.24 bitrate=N/A speed=18.8x    frame= 8188 fps=454 q=-0.0 size=N/A time=00:05:41.50 bitrate=N/A speed=18.9x    frame= 8454 fps=456 q=-0.0 size=N/A time=00:05:52.60 bitrate=N/A speed=  19x    frame= 8738 fps=458 q=-0.0 size=N/A time=00:06:04.44 bitrate=N/A speed=19.1x    frame= 9004 fps=460 q=-0.0 size=N/A time=00:06:15.54 bitrate=N/A speed=19.2x    frame= 9275 fps=461 q=-0.0 size=N/A time=00:06:26.84 bitrate=N/A speed=19.2x    frame= 9554 fps=463 q=-0.0 size=N/A time=00:06:38.48 bitrate=N/A speed=19.3x    frame= 9827 fps=465 q=-0.0 size=N/A time=00:06:49.86 bitrate=N/A speed=19.4x    frame=10103 fps=467 q=-0.0 size=N/A time=00:07:01.37 bitrate=N/A speed=19.5x    frame=10400 fps=469 q=-0.0 size=N/A time=00:07:13.76 bitrate=N/A speed=19.6x    frame=10652 fps=470 q=-0.0 size=N/A time=00:07:24.27 bitrate=N/A speed=19.6x    frame=10925 fps=471 q=-0.0 size=N/A time=00:07:35.66 bitrate=N/A speed=19.6x    frame=11213 fps=473 q=-0.0 size=N/A time=00:07:47.67 bitrate=N/A speed=19.7x    frame=11485 fps=474 q=-0.0 size=N/A time=00:07:59.02 bitrate=N/A speed=19.8x    frame=11751 fps=475 q=-0.0 size=N/A time=00:08:10.11 bitrate=N/A speed=19.8x    frame=12023 fps=476 q=-0.0 size=N/A time=00:08:21.45 bitrate=N/A speed=19.8x    frame=12309 fps=477 q=-0.0 size=N/A time=00:08:33.38 bitrate=N/A speed=19.9x    frame=12580 fps=479 q=-0.0 size=N/A time=00:08:44.69 bitrate=N/A speed=  20x    frame=12859 fps=480 q=-0.0 size=N/A time=00:08:56.32 bitrate=N/A speed=  20x    frame=13138 fps=481 q=-0.0 size=N/A time=00:09:07.96 bitrate=N/A speed=20.1x    frame=13398 fps=481 q=-0.0 size=N/A time=00:09:18.80 bitrate=N/A speed=20.1x    frame=13658 fps=482 q=-0.0 size=N/A time=00:09:29.65 bitrate=N/A speed=20.1x    frame=13892 fps=481 q=-0.0 size=N/A time=00:09:39.41 bitrate=N/A speed=20.1x    frame=14144 fps=481 q=-0.0 size=N/A time=00:09:49.92 bitrate=N/A speed=20.1x    frame=14421 fps=482 q=-0.0 size=N/A time=00:10:01.47 bitrate=N/A speed=20.1x    frame=14694 fps=483 q=-0.0 size=N/A time=00:10:12.86 bitrate=N/A speed=20.1x    frame=14923 fps=482 q=-0.0 size=N/A time=00:10:22.41 bitrate=N/A speed=20.1x    frame=15172 fps=482 q=-0.0 size=N/A time=00:10:32.79 bitrate=N/A speed=20.1x    frame=15423 fps=482 q=-0.0 size=N/A time=00:10:43.26 bitrate=N/A speed=20.1x    frame=15668 fps=482 q=-0.0 size=N/A time=00:10:53.48 bitrate=N/A speed=20.1x    frame=15930 fps=482 q=-0.0 size=N/A time=00:11:04.41 bitrate=N/A speed=20.1x    frame=16195 fps=483 q=-0.0 size=N/A time=00:11:15.46 bitrate=N/A speed=20.1x    frame=16459 fps=484 q=-0.0 size=N/A time=00:11:26.47 bitrate=N/A speed=20.2x    frame=16745 fps=484 q=-0.0 size=N/A time=00:11:38.40 bitrate=N/A speed=20.2x    frame=17018 fps=485 q=-0.0 size=N/A time=00:11:49.79 bitrate=N/A speed=20.2x    frame=17284 fps=486 q=-0.0 size=N/A time=00:12:00.88 bitrate=N/A speed=20.3x    frame=17547 fps=486 q=-0.0 size=N/A time=00:12:11.85 bitrate=N/A speed=20.3x    frame=17806 fps=486 q=-0.0 size=N/A time=00:12:22.65 bitrate=N/A speed=20.3x    frame=18053 fps=486 q=-0.0 size=N/A time=00:12:32.96 bitrate=N/A speed=20.3x    frame=18296 fps=486 q=-0.0 size=N/A time=00:12:43.09 bitrate=N/A speed=20.3x    frame=18567 fps=486 q=-0.0 size=N/A time=00:12:54.39 bitrate=N/A speed=20.3x    frame=18813 fps=486 q=-0.0 size=N/A time=00:13:04.65 bitrate=N/A speed=20.3x    frame=19062 fps=486 q=-0.0 size=N/A time=00:13:15.04 bitrate=N/A speed=20.3x    frame=19334 fps=487 q=-0.0 size=N/A time=00:13:26.38 bitrate=N/A speed=20.3x    frame=19600 fps=487 q=-0.0 size=N/A time=00:13:37.48 bitrate=N/A speed=20.3x    frame=19875 fps=488 q=-0.0 size=N/A time=00:13:48.95 bitrate=N/A speed=20.3x    frame=20101 fps=487 q=-0.0 size=N/A time=00:13:58.37 bitrate=N/A speed=20.3x    frame=20377 fps=488 q=-0.0 size=N/A time=00:14:09.89 bitrate=N/A speed=20.3x    frame=20627 fps=488 q=-0.0 size=N/A time=00:14:20.31 bitrate=N/A speed=20.3x    frame=20889 fps=488 q=-0.0 size=N/A time=00:14:31.24 bitrate=N/A speed=20.4x    frame=21149 fps=488 q=-0.0 size=N/A time=00:14:42.08 bitrate=N/A speed=20.4x    frame=21391 fps=488 q=-0.0 size=N/A time=00:14:52.18 bitrate=N/A speed=20.3x    frame=21640 fps=488 q=-0.0 size=N/A time=00:15:02.56 bitrate=N/A speed=20.3x    frame=21891 fps=488 q=-0.0 size=N/A time=00:15:13.03 bitrate=N/A speed=20.3x    frame=22161 fps=488 q=-0.0 size=N/A time=00:15:24.29 bitrate=N/A speed=20.4x    frame=22436 fps=489 q=-0.0 size=N/A time=00:15:35.76 bitrate=N/A speed=20.4x    frame=22686 fps=489 q=-0.0 size=N/A time=00:15:46.19 bitrate=N/A speed=20.4x    frame=22961 fps=489 q=-0.0 size=N/A time=00:15:57.66 bitrate=N/A speed=20.4x    frame=23250 fps=490 q=-0.0 size=N/A time=00:16:09.71 bitrate=N/A speed=20.4x    frame=23482 fps=490 q=-0.0 size=N/A time=00:16:19.39 bitrate=N/A speed=20.4x    frame=23736 fps=490 q=-0.0 size=N/A time=00:16:29.98 bitrate=N/A speed=20.4x    frame=23889 fps=488 q=-0.0 size=N/A time=00:16:36.37 bitrate=N/A speed=20.3x    frame=24088 fps=487 q=-0.0 size=N/A time=00:16:44.67 bitrate=N/A speed=20.3x    frame=24308 fps=486 q=-0.0 size=N/A time=00:16:53.84 bitrate=N/A speed=20.3x    frame=24554 fps=486 q=-0.0 size=N/A time=00:17:04.10 bitrate=N/A speed=20.3x    frame=24797 fps=486 q=-0.0 size=N/A time=00:17:14.24 bitrate=N/A speed=20.3x    frame=25014 fps=485 q=-0.0 size=N/A time=00:17:23.29 bitrate=N/A speed=20.2x    frame=25256 fps=485 q=-0.0 size=N/A time=00:17:33.38 bitrate=N/A speed=20.2x    frame=25492 fps=485 q=-0.0 size=N/A time=00:17:43.22 bitrate=N/A speed=20.2x    frame=25739 fps=484 q=-0.0 size=N/A time=00:17:53.53 bitrate=N/A speed=20.2x    frame=25994 fps=485 q=-0.0 size=N/A time=00:18:04.16 bitrate=N/A speed=20.2x    frame=26230 fps=484 q=-0.0 size=N/A time=00:18:14.00 bitrate=N/A speed=20.2x    frame=26458 fps=484 q=-0.0 size=N/A time=00:18:23.51 bitrate=N/A speed=20.2x    frame=26698 fps=484 q=-0.0 size=N/A time=00:18:33.52 bitrate=N/A speed=20.2x    frame=26930 fps=484 q=-0.0 size=N/A time=00:18:43.20 bitrate=N/A speed=20.2x    frame=27156 fps=483 q=-0.0 size=N/A time=00:18:52.63 bitrate=N/A speed=20.1x    frame=27356 fps=482 q=-0.0 size=N/A time=00:19:00.97 bitrate=N/A speed=20.1x    frame=27633 fps=483 q=-0.0 size=N/A time=00:19:12.52 bitrate=N/A speed=20.1x    frame=27887 fps=483 q=-0.0 size=N/A time=00:19:23.12 bitrate=N/A speed=20.1x    frame=28122 fps=483 q=-0.0 size=N/A time=00:19:32.92 bitrate=N/A speed=20.1x    frame=28388 fps=483 q=-0.0 size=N/A time=00:19:44.01 bitrate=N/A speed=20.1x    frame=28633 fps=483 q=-0.0 size=N/A time=00:19:54.23 bitrate=N/A speed=20.1x    frame=28895 fps=483 q=-0.0 size=N/A time=00:20:05.16 bitrate=N/A speed=20.1x    frame=29143 fps=483 q=-0.0 size=N/A time=00:20:15.50 bitrate=N/A speed=20.1x    frame=29422 fps=483 q=-0.0 size=N/A time=00:20:27.14 bitrate=N/A speed=20.2x    frame=29687 fps=484 q=-0.0 size=N/A time=00:20:38.19 bitrate=N/A speed=20.2x    frame=29950 fps=484 q=-0.0 size=N/A time=00:20:49.16 bitrate=N/A speed=20.2x    frame=30212 fps=484 q=-0.0 size=N/A time=00:21:00.09 bitrate=N/A speed=20.2x    frame=30477 fps=484 q=-0.0 size=N/A time=00:21:11.14 bitrate=N/A speed=20.2x    frame=30745 fps=485 q=-0.0 size=N/A time=00:21:22.32 bitrate=N/A speed=20.2x    frame=31027 fps=485 q=-0.0 size=N/A time=00:21:34.08 bitrate=N/A speed=20.2x    frame=31255 fps=485 q=-0.0 size=N/A time=00:21:43.59 bitrate=N/A speed=20.2x    frame=31520 fps=485 q=-0.0 size=N/A time=00:21:54.64 bitrate=N/A speed=20.2x    frame=31783 fps=485 q=-0.0 size=N/A time=00:22:05.61 bitrate=N/A speed=20.2x    frame=32014 fps=485 q=-0.0 size=N/A time=00:22:15.25 bitrate=N/A speed=20.2x    frame=32282 fps=485 q=-0.0 size=N/A time=00:22:26.42 bitrate=N/A speed=20.2x    frame=32522 fps=485 q=-0.0 size=N/A time=00:22:36.43 bitrate=N/A speed=20.2x    frame=32772 fps=485 q=-0.0 size=N/A time=00:22:46.86 bitrate=N/A speed=20.2x    frame=33022 fps=485 q=-0.0 size=N/A time=00:22:57.29 bitrate=N/A speed=20.2x    frame=33262 fps=485 q=-0.0 size=N/A time=00:23:07.30 bitrate=N/A speed=20.2x    frame=33506 fps=485 q=-0.0 size=N/A time=00:23:17.47 bitrate=N/A speed=20.2x    frame=33772 fps=485 q=-0.0 size=N/A time=00:23:28.57 bitrate=N/A speed=20.2x    frame=33996 fps=485 q=-0.0 size=N/A time=00:23:37.91 bitrate=N/A speed=20.2x    [Parsed_ssim_10 @ 00000275cbc6e2c0] SSIM Y:0.994870 (22.899111) U:0.994539 (22.627134) V:0.994905 (22.928388) All:0.994821 (22.857396)
[out#0/null @ 00000275c4903b80] video:14719KiB audio:269204KiB subtitle:0KiB other streams:0KiB global headers:0KiB muxing overhead: unknown
frame=34256 fps=485 q=-0.0 Lsize=N/A time=00:23:48.76 bitrate=N/A speed=20.2x    
